<svg width="24" height="24" viewBox="0 0 24 24" fill="none" xmlns="http://www.w3.org/2000/svg">
<path d="M13.397 5.38672C15.3891 3.81779 18.4633 4.00279 20.1841 6.2207L20.4927 6.62012C22.2956 8.9443 22.0359 12.2584 19.8921 14.2725L12.939 20.8037C12.8265 20.9093 12.7162 21.0137 12.6147 21.0918C12.5067 21.175 12.3698 21.2601 12.1929 21.2949C12.0659 21.3198 11.935 21.3197 11.8081 21.2949C11.6311 21.2602 11.4934 21.175 11.3853 21.0918C11.284 21.0137 11.1733 20.9092 11.061 20.8037L4.10889 14.2725C1.96485 12.2584 1.70429 8.9444 3.50732 6.62012L3.81689 6.2207C5.58648 3.94017 8.78654 3.80785 10.771 5.52441L11.1323 5.83691L10.8364 6.21289L9.80029 7.52539C9.46311 7.95278 9.24375 8.233 9.11182 8.45898C8.9873 8.67239 8.98739 8.76189 8.99756 8.81738C9.00782 8.87292 9.03999 8.95711 9.23193 9.1123C9.43544 9.27674 9.74009 9.46036 10.2065 9.74023L11.4585 10.4922C11.8681 10.7379 12.2204 10.9481 12.4761 11.1533C12.743 11.3676 12.9684 11.6252 13.0503 11.9893C13.1318 12.353 13.0385 12.6816 12.8892 12.9893C12.7459 13.2842 12.5175 13.6249 12.2524 14.0225L11.4165 15.2773L10.5845 14.7227L11.4204 13.4678C11.7015 13.0462 11.8834 12.7718 11.9897 12.5527C12.0895 12.3473 12.0867 12.2616 12.0747 12.208C12.0626 12.1545 12.0283 12.0757 11.8501 11.9326C11.6603 11.7803 11.3788 11.61 10.9448 11.3496L9.69189 10.5977C9.25103 10.3331 8.87385 10.1086 8.60303 9.88965C8.32115 9.66173 8.08553 9.38603 8.01416 8.99707C7.94301 8.60811 8.0658 8.26712 8.24854 7.9541C8.42412 7.65342 8.69672 7.30985 9.01514 6.90625L9.73486 5.99316C8.15535 4.94659 5.8973 5.17087 4.60693 6.83398L4.29736 7.23242C2.81024 9.14919 3.02526 11.8829 4.79346 13.5439L11.7456 20.0752C11.8723 20.1942 11.9421 20.2586 11.9956 20.2998C11.9968 20.3007 11.9984 20.3019 11.9995 20.3027C12.0009 20.3017 12.0029 20.301 12.0044 20.2998C12.0579 20.2586 12.1275 20.1944 12.2544 20.0752L19.2075 13.5439C20.9755 11.883 21.1895 9.14912 19.7026 7.23242L19.394 6.83398C18.0345 5.08174 15.5995 4.92501 14.0161 6.17188L13.397 5.38672Z" fill="#222222"/>
</svg>
