<svg width="24" height="24" viewBox="0 0 24 24" fill="none" xmlns="http://www.w3.org/2000/svg">
<path d="M11 10L14 13" stroke="#525252" stroke-width="1.5" stroke-linecap="round" stroke-linejoin="round"/>
<path d="M6.49984 21C7.19207 21 7.86876 20.7947 8.44433 20.4101C9.0199 20.0256 9.46851 19.4789 9.73342 18.8394C9.99832 18.1999 10.0676 17.4961 9.93259 16.8172C9.79754 16.1383 9.46419 15.5146 8.97471 15.0251C8.48523 14.5356 7.86159 14.2023 7.18265 14.0673C6.50372 13.9322 5.79999 14.0015 5.16044 14.2664C4.5209 14.5313 3.97428 14.9799 3.58969 15.5555C3.20511 16.1311 2.99984 16.8078 2.99984 17.5C3.00002 18.1656 2.74689 18.8063 2.29184 19.292C2.15162 19.4319 2.05609 19.6102 2.01736 19.8044C1.97863 19.9986 1.99843 20.2 2.07427 20.3829C2.1501 20.5659 2.27855 20.7222 2.44333 20.832C2.60811 20.9419 2.8018 21.0004 2.99984 21H6.49984Z" stroke="#525252" stroke-width="1.5" stroke-linecap="round" stroke-linejoin="round"/>
<path d="M9.9688 17.0307L21.3778 5.62373C21.7759 5.22564 21.9995 4.68572 21.9995 4.12273C21.9995 3.55975 21.7759 3.01982 21.3778 2.62173C20.9797 2.22364 20.4398 2 19.8768 2C19.3138 2 18.7739 2.22364 18.3758 2.62173L6.9668 14.0307" stroke="#525252" stroke-width="1.5" stroke-linecap="round" stroke-linejoin="round"/>
</svg>
