<svg width="24" height="24" viewBox="0 0 24 24" fill="none" xmlns="http://www.w3.org/2000/svg">
<path d="M10 11H10.01" stroke="#525252" stroke-width="1.5" stroke-linecap="round" stroke-linejoin="round"/>
<path d="M14 6H14.01" stroke="#525252" stroke-width="1.5" stroke-linecap="round" stroke-linejoin="round"/>
<path d="M18 6H18.01" stroke="#525252" stroke-width="1.5" stroke-linecap="round" stroke-linejoin="round"/>
<path d="M6.5 13.0996H6.51" stroke="#525252" stroke-width="1.5" stroke-linecap="round" stroke-linejoin="round"/>
<path d="M22 5C22 14 18 17 16 17C14 17 10 14 10 5C10 3 12 2 16 2C20 2 22 3 22 5Z" stroke="#525252" stroke-width="1.5" stroke-linecap="round" stroke-linejoin="round"/>
<path d="M17.4001 9.90039C16.6001 10.7004 15.4001 10.7004 14.6001 9.90039" stroke="#525252" stroke-width="1.5" stroke-linecap="round" stroke-linejoin="round"/>
<path d="M10.1002 7.09961C9.00019 7.19961 7.70019 7.69961 6.00019 8.59961C2.50019 10.5996 1.30019 12.4996 2.30019 14.1996C6.80019 21.9996 11.8002 22.5996 13.5002 21.5996C14.4002 21.0996 15.4002 19.4996 15.4002 16.8996" stroke="#525252" stroke-width="1.5" stroke-linecap="round" stroke-linejoin="round"/>
<path d="M9.1001 16.5004C9.4001 15.4004 10.5001 14.8004 11.5001 15.1004" stroke="#525252" stroke-width="1.5" stroke-linecap="round" stroke-linejoin="round"/>
</svg>
