<svg width="24" height="24" viewBox="0 0 24 24" fill="none" xmlns="http://www.w3.org/2000/svg">
<path d="M18.0352 4.20605C18.5448 4.11544 19.0803 4.12142 19.4795 4.52051C19.8786 4.91966 19.8845 5.45521 19.7939 5.96484C19.7026 6.47817 19.4795 7.14154 19.209 7.95312L17.0459 14.4434C16.7755 15.2545 16.5666 15.8822 16.3857 16.3457C16.2116 16.792 16.0354 17.1649 15.8027 17.4072C14.819 18.4309 13.181 18.4309 12.1973 17.4072C11.9646 17.1649 11.7884 16.7921 11.6143 16.3457C11.4334 15.8821 11.2245 15.2545 10.9541 14.4434C10.8393 14.0989 10.7984 13.9807 10.7451 13.8799C10.6043 13.6137 10.3863 13.3956 10.1201 13.2549C10.0193 13.2016 9.90125 13.1608 9.55664 13.0459C8.7453 12.7755 8.11788 12.5666 7.6543 12.3857C7.20787 12.2116 6.83513 12.0355 6.59277 11.8027C5.56918 10.819 5.56911 9.18096 6.59277 8.19727C6.83514 7.96464 7.20803 7.78838 7.6543 7.61426C8.11786 7.43341 8.74545 7.2245 9.55664 6.9541L16.0469 4.79102C16.8585 4.52047 17.5218 4.29738 18.0352 4.20605ZM18.7725 5.22754C18.7347 5.18977 18.6367 5.11454 18.21 5.19043C17.7863 5.26582 17.2071 5.458 16.3633 5.73926L9.87207 7.90332C9.05038 8.17722 8.45195 8.37643 8.01758 8.5459C7.56702 8.7217 7.36838 8.83827 7.28516 8.91797C6.67097 9.50817 6.67104 10.4918 7.28516 11.082C7.36823 11.1617 7.56655 11.2781 8.01758 11.4541C8.45197 11.6236 9.05023 11.8227 9.87207 12.0967C10.1851 12.201 10.3969 12.2701 10.5879 12.3711C11.0314 12.6057 11.3943 12.9686 11.6289 13.4121C11.7299 13.603 11.799 13.815 11.9033 14.1279C12.1772 14.9496 12.3764 15.5481 12.5459 15.9824C12.7218 16.4332 12.8383 16.6317 12.918 16.7148C13.5082 17.3291 14.4918 17.3291 15.082 16.7148C15.1617 16.6316 15.2783 16.433 15.4541 15.9824C15.6236 15.5481 15.8228 14.9495 16.0967 14.1279L18.2607 7.63672C18.542 6.79301 18.7342 6.2137 18.8096 5.79004C18.8855 5.363 18.8102 5.26526 18.7725 5.22754Z" fill="#222222"/>
</svg>
